<?xml version="1.0"?>
<svg xmlns="http://www.w3.org/2000/svg" viewBox="0 0 64 64" width="512" height="512"><g id="Edit-Edit_Tools-Hand-Setting-Gear" data-name="Edit-Edit Tools-Hand-Setting-Gear"><path d="M21,52H20V45a1,1,0,0,0-.134-.5l-7-12.124A3.979,3.979,0,0,0,10,30.44V22a4,4,0,0,0-8,0V46a1,1,0,0,0,.219.625L6,51.351V52H5a1,1,0,0,0-1,1v8a1,1,0,0,0,1,1H21a1,1,0,0,0,1-1V53A1,1,0,0,0,21,52ZM7.781,50.375,4,45.649V22a2,2,0,0,1,4,0v8.642a3.941,3.941,0,0,0-.6.269,4.008,4.008,0,0,0-1.463,5.465l7,12.124,1.732-1-7-12.124a2,2,0,0,1,3.464-2L18,45.268V52H8V51A1,1,0,0,0,7.781,50.375ZM20,60H6V54H20Z"/><rect x="16" y="56" width="2" height="2"/><rect x="46" y="56" width="2" height="2"/><path d="M58,18a4,4,0,0,0-4,4v8.44a3.979,3.979,0,0,0-2.866,1.936l-7,12.124A1,1,0,0,0,44,45v7H43a1,1,0,0,0-1,1v8a1,1,0,0,0,1,1H59a1,1,0,0,0,1-1V53a1,1,0,0,0-1-1H58v-.649l3.781-4.726A1,1,0,0,0,62,46V22A4,4,0,0,0,58,18Zm0,42H44V54H58Zm2-14.351-3.781,4.726A1,1,0,0,0,56,51v1H46V45.268l6.866-11.892a2,2,0,0,1,3.464,2l-7,12.124,1.732,1,7-12.124A4.008,4.008,0,0,0,56.6,30.911a3.887,3.887,0,0,0-.6-.269V22a2,2,0,0,1,4,0Z"/><path d="M43.406,42.179l-1.624-2.167a10.855,10.855,0,0,0,.678-1.639l2.682-.383A1,1,0,0,0,46,37V33a1,1,0,0,0-.858-.99l-2.682-.383a10.855,10.855,0,0,0-.678-1.639l1.624-2.167a1,1,0,0,0-.093-1.306l-2.828-2.828a1,1,0,0,0-1.307-.093l-2.683,2.012,1.2,1.6,1.99-1.492,1.6,1.6-1.492,1.991a1,1,0,0,0-.06,1.11,8.859,8.859,0,0,1,.975,2.356,1,1,0,0,0,.828.744L44,33.867v2.266l-2.463.351a1,1,0,0,0-.828.744,8.859,8.859,0,0,1-.975,2.356,1,1,0,0,0,.06,1.11l1.492,1.991-1.6,1.6L37.7,42.794a1,1,0,0,0-1.111-.061,8.923,8.923,0,0,1-2.357.977,1,1,0,0,0-.742.827L33.133,47H30.867l-.352-2.463a1,1,0,0,0-.742-.827,8.923,8.923,0,0,1-2.357-.977,1,1,0,0,0-1.111.061l-1.99,1.492-1.6-1.6,1.492-1.991a1,1,0,0,0,.06-1.11,8.859,8.859,0,0,1-.975-2.356,1,1,0,0,0-.828-.744L20,36.133V33.867l2.463-.351a1,1,0,0,0,.828-.744,8.859,8.859,0,0,1,.975-2.356,1,1,0,0,0-.06-1.11l-1.492-1.991,1.6-1.6,1.99,1.492,1.2-1.6-2.683-2.012a1,1,0,0,0-1.307.093l-2.828,2.828a1,1,0,0,0-.093,1.306l1.624,2.167a10.855,10.855,0,0,0-.678,1.639l-2.682.383A1,1,0,0,0,18,33v4a1,1,0,0,0,.858.99l2.682.383a10.855,10.855,0,0,0,.678,1.639l-1.624,2.167a1,1,0,0,0,.093,1.306l2.828,2.828a1,1,0,0,0,1.307.093l2.166-1.625a10.86,10.86,0,0,0,1.639.679l.383,2.682A1,1,0,0,0,30,49h4a1,1,0,0,0,.99-.858l.383-2.682a10.86,10.86,0,0,0,1.639-.679l2.166,1.625a1,1,0,0,0,1.307-.093l2.828-2.828A1,1,0,0,0,43.406,42.179Z"/><path d="M26.5,32.6a6,6,0,1,0,11,0l-1.833.8a4,4,0,1,1-7.334,0Z"/><path d="M35.429,20.379,36.9,17.447a1,1,0,0,0-.063-1l-4-6a1.039,1.039,0,0,0-1.664,0l-4,6a1,1,0,0,0-.063,1l1.466,2.932A2.978,2.978,0,0,0,29,25.816V36a1,1,0,0,0,1,1h4a1,1,0,0,0,1-1V25.816a2.978,2.978,0,0,0,.429-5.437ZM31,14.3V18h2V14.3l1.846,2.769L33.382,20H30.618l-1.464-2.928ZM31,35V26h2v9Zm3-11H30a1,1,0,0,1,0-2h4a1,1,0,0,1,0,2Z"/><path d="M17,8a3,3,0,0,0,2.816-2h4.953a13.891,13.891,0,0,0-6.732,11.173,3,3,0,1,0,2,.023A12.086,12.086,0,0,1,29.314,6.31a2.979,2.979,0,0,0,5.372,0A12.086,12.086,0,0,1,43.963,17.2a3,3,0,1,0,2-.023A13.891,13.891,0,0,0,39.231,6h4.953a3,3,0,1,0,0-2H34.816a2.982,2.982,0,0,0-5.632,0H19.816A2.995,2.995,0,1,0,17,8Zm2,13a1,1,0,1,1,1-1A1,1,0,0,1,19,21Zm26,0a1,1,0,1,1,1-1A1,1,0,0,1,45,21ZM47,4a1,1,0,1,1-1,1A1,1,0,0,1,47,4ZM32,4a1,1,0,1,1-1,1A1,1,0,0,1,32,4ZM17,4a1,1,0,1,1-1,1A1,1,0,0,1,17,4Z"/></g></svg>
