<svg id="Capa_1" enable-background="new 0 0 511.999 511.999" height="512" viewBox="0 0 511.999 511.999" width="512" xmlns="http://www.w3.org/2000/svg"><g><path d="m.001 183.5c0 81.007 27.087 120.126 46.864 148.69 11.688 16.88 20.133 29.077 20.133 44.81v119.999c0 8.284 6.717 15 15 15h186.002c8.284 0 15-6.716 15-15v-29.994h69c8.284 0 15-6.716 15-15v-45.002c0-4.997-2.488-9.666-6.636-12.452-5.57-3.817-13.363-12.074-13.363-17.548 0-5.984 8.848-14.516 13.363-17.548 4.148-2.786 6.636-7.455 6.636-12.452v-30.003h25.004c4.991 0 9.656-2.483 12.442-6.624 2.787-4.14 3.333-9.396 1.455-14.02l-38.901-95.785v-17.071c0-101.182-82.317-183.5-183.499-183.5s-183.5 82.318-183.5 183.5zm29.999 0c0-84.64 68.86-153.5 153.501-153.5s153.499 68.86 153.499 153.5v20.001c0 1.935.374 3.851 1.103 5.644l31.619 77.855h-17.722c-8.284 0-15 6.716-15 15v37.734c-7.966 6.982-19.999 20.332-19.999 37.268s12.033 30.286 19.999 37.268v22.734h-69c-8.284 0-15 6.716-15 15v29.994h-156.003v-104.998c0-25.105-12.371-42.972-25.469-61.888-18.501-26.721-41.528-59.977-41.528-131.612z"/><path d="m481.275 311.29c7.688-3.09 16.424.636 19.513 8.323 7.439 18.506 11.211 38.011 11.211 57.971s-3.772 39.465-11.211 57.971c-2.354 5.853-7.978 9.409-13.923 9.409-1.863 0-3.757-.349-5.59-1.086-7.686-3.09-11.413-11.826-8.324-19.512 6.004-14.933 9.048-30.672 9.048-46.782 0-16.109-3.044-31.849-9.048-46.782-3.089-7.686.637-16.422 8.324-19.512z"/><path d="m425.605 333.667c7.686-3.089 16.422.637 19.512 8.324 4.566 11.361 6.882 23.337 6.882 35.594s-2.315 24.233-6.882 35.594c-2.352 5.853-7.978 9.41-13.923 9.41-1.862 0-3.756-.349-5.589-1.086-7.688-3.09-11.414-11.826-8.324-19.512 3.131-7.788 4.718-16 4.718-24.406s-1.587-16.618-4.718-24.406c-3.09-7.687.637-16.423 8.324-19.512z"/></g></svg>